<svg height="512pt" viewBox="0 0 511 512" width="512pt" xmlns="http://www.w3.org/2000/svg"><path d="m495.820312 123.738281h14.964844v-123.738281h-123.738281v15.328125c0 12.890625-10.484375 23.375-23.375 23.375h-216.058594c-12.886719 0-23.375-10.484375-23.375-23.375v-15.328125h-123.738281v123.738281h15.476562c12.886719 0 23.375 10.488281 23.375 23.375v217.261719c0 13.171875-10.714843 23.886719-23.882812 23.886719h-14.96875v123.738281h123.738281v-16.320312c0-13.167969 10.714844-23.882813 23.886719-23.882813h215.546875c12.886719 0 23.375 10.484375 23.375 23.375v16.828125h123.738281v-123.738281h-14.96875c-12.886718 0-23.375-10.488281-23.375-23.375v-217.773438c0-12.886719 10.488282-23.375 23.378906-23.375zm-14.96875 292.320313v66.007812h-65.5c-5.855468-23.078125-26.804687-40.203125-51.679687-40.203125h-215.546875c-24.976562 0-46.03125 17.097657-52.074219 40.203125h-65.617187v-65.988281c22.417968-6.5 38.851562-27.21875 38.851562-51.703125v-217.261719c0-24.382812-16.457031-45-38.851562-51.316406v-65.863281h65.90625c6.363281 22.320312 26.941406 38.707031 51.273437 38.707031h216.058594c24.332031 0 44.910156-16.386719 51.277344-38.707031h65.902343v66.007812c-22.132812 6.484375-38.34375 26.972656-38.34375 51.171875v217.769531c0 24.203126 16.210938 44.691407 38.34375 51.175782zm0 0"/><path d="m95.128906 416.019531h321.535156v-321.535156h-321.535156zm291.601563-95.621093h-58.214844l-60.648437-60.9375 34.546874-34.546876 84.316407 84.316407zm-100.449219 0h-161.21875v-91.953126l34.933594-34.933593zm-161.21875 65.6875v-35.753907h261.667969v35.753907zm261.667969-261.667969v142.476562l-84.316407-84.316406-55.664062 55.664063-86.703125-87.113282-34.984375 34.984375v-61.695312zm0 0"/><path d="m246.933594 182.410156c7.828125 0 15.328125-6.886718 14.964844-14.96875-.363282-8.109375-6.574219-14.96875-14.964844-14.96875-7.832032 0-15.332032 6.882813-14.96875 14.96875.363281 8.109375 6.574218 14.96875 14.96875 14.96875zm0 0"/></svg>